<?xml version="1.0" standalone="no"?>
<!DOCTYPE svg PUBLIC "-//W3C//DTD SVG 20010904//EN"
 "http://www.w3.org/TR/2001/REC-SVG-20010904/DTD/svg10.dtd">
<svg version="1.0" xmlns="http://www.w3.org/2000/svg"
 width="300.000000pt" height="300.000000pt" viewBox="0 0 300.000000 300.000000"
 preserveAspectRatio="xMidYMid meet">
<metadata>
Created by potrace 1.10, written by Peter Selinger 2001-2011
</metadata>
<g transform="translate(0.000000,300.000000) scale(0.100000,-0.100000)"
fill="#000000" stroke="none">
<path d="M1424 2486 c-222 -92 -234 -98 -240 -123 -8 -29 11 -53 42 -53 12 0
78 23 145 52 67 28 127 51 133 51 11 0 309 -124 791 -330 253 -108 388 -163
401 -163 29 0 -126 87 -189 106 -12 3 -40 14 -62 25 -22 10 -112 48 -200 85
-88 36 -178 74 -200 84 -22 10 -107 46 -190 81 -82 34 -173 72 -200 85 -57 26
-135 55 -150 56 -5 1 -68 -22 -139 -51 -117 -47 -158 -55 -138 -25 10 15 250
114 276 114 17 0 406 -159 561 -230 11 -5 170 -72 352 -148 183 -77 340 -147
348 -156 33 -33 15 -58 -75 -104 -47 -24 -89 -47 -93 -51 -5 -5 -8 -161 -8
-347 1 -304 3 -340 19 -362 48 -67 52 -78 51 -132 0 -30 -4 -64 -8 -75 -8 -21
-1 -58 43 -210 27 -93 33 -145 17 -145 -5 0 -28 9 -52 20 -57 25 -131 25 -188
-1 -71 -32 -74 -20 -36 154 27 122 31 155 23 190 -5 23 -8 66 -5 95 3 48 9 58
50 99 l47 46 1 86 c0 47 0 183 -1 301 -1 197 -2 217 -20 234 -19 19 -20 19
-117 -20 -54 -21 -106 -47 -115 -56 -16 -16 -18 -38 -18 -170 0 -361 -4 -432
-24 -463 -27 -41 -34 -47 -87 -78 -53 -31 -59 -32 -59 -13 0 8 25 32 55 53 30
21 59 48 65 61 6 14 10 121 10 277 0 241 -1 256 -20 275 -20 20 -20 20 -82 -4
-63 -23 -347 -142 -423 -176 -118 -53 -190 -80 -211 -80 -13 0 -92 29 -176 64
-84 35 -229 96 -321 135 -93 39 -180 71 -193 71 -17 0 -27 -8 -34 -25 -14 -36
-15 -517 -1 -543 24 -45 185 -133 331 -182 230 -78 467 -86 709 -24 53 13 96
24 97 24 1 0 4 -7 8 -15 6 -16 -71 -42 -211 -70 -82 -16 -289 -22 -362 -9
-213 35 -373 92 -511 180 -113 72 -104 41 -110 390 -6 346 1 322 -100 363 -30
13 -68 29 -85 36 -16 7 -79 34 -140 59 -60 26 -125 54 -143 63 -32 16 -50 52
-37 73 9 14 91 52 275 127 128 53 153 63 260 111 63 27 270 112 275 112 3 0 5
-8 5 -17 -1 -20 -10 -25 -370 -174 -274 -113 -344 -145 -360 -164 -9 -11 -4
-11 32 0 87 27 733 304 742 319 15 23 -9 66 -37 66 -17 0 -411 -160 -592 -240
-11 -5 -69 -30 -130 -55 -60 -25 -116 -53 -122 -62 -18 -23 -16 -73 3 -94 9
-10 124 -64 255 -119 l239 -102 0 -289 c0 -318 2 -334 59 -382 113 -95 365
-197 556 -225 64 -9 315 -9 380 0 66 10 192 42 238 62 31 12 37 20 37 45 0 44
-30 58 -84 37 -65 -25 -213 -54 -311 -61 -115 -9 -254 6 -387 40 -124 31 -340
134 -377 178 -15 19 -21 559 -6 553 192 -82 631 -267 661 -279 l40 -15 341
143 c188 78 346 146 352 149 17 11 15 -525 -1 -546 -7 -9 -39 -33 -71 -53 -49
-31 -58 -40 -55 -62 2 -14 12 -32 24 -39 18 -12 27 -9 89 29 119 73 115 59
115 412 l0 301 58 24 c31 13 79 34 106 47 28 12 51 23 53 23 2 0 3 -138 3
-307 l0 -308 -36 -29 c-20 -16 -42 -44 -50 -62 -17 -40 -18 -109 -3 -153 11
-32 6 -62 -48 -289 -16 -69 -14 -86 15 -101 15 -8 30 -4 67 15 66 35 137 35
204 0 l51 -26 20 20 c11 11 20 23 20 27 0 9 -26 105 -64 238 -21 71 -24 96
-16 119 25 71 6 160 -44 205 l-26 24 0 332 0 331 82 35 c94 39 118 60 118 104
0 42 -26 64 -130 107 -126 53 -631 266 -900 381 -129 54 -244 103 -256 107
-15 6 -44 -1 -100 -24z"/>
<path d="M1508 2010 c-19 -12 -23 -46 -9 -69 9 -14 27 -18 216 -46 55 -9 111
-18 125 -20 37 -6 222 -35 330 -50 158 -23 175 -26 186 -30 6 -2 17 0 24 5 20
12 -39 27 -225 55 -93 14 -255 39 -360 56 -104 16 -204 32 -222 35 -18 3 -35
9 -38 14 -13 21 7 27 62 18 134 -19 586 -89 678 -104 55 -8 111 -17 125 -19
14 -2 53 -9 88 -14 71 -11 140 4 186 40 41 32 25 33 -48 4 l-67 -27 -97 16
c-93 14 -218 34 -367 56 -38 6 -81 13 -95 15 -14 2 -56 9 -95 15 -38 6 -81 13
-95 15 -14 2 -70 11 -125 19 -55 9 -113 18 -130 21 -16 3 -38 0 -47 -5z"/>
<path d="M323 1886 c16 -13 54 -33 85 -46 83 -33 338 -140 563 -236 107 -46
198 -84 202 -84 3 0 34 -13 69 -29 35 -16 106 -46 158 -66 108 -43 120 -42
244 15 37 16 68 30 71 30 10 0 643 273 663 286 73 48 -51 10 -205 -62 -40 -19
-74 -34 -77 -34 -4 0 -342 -142 -381 -160 -11 -5 -63 -27 -116 -49 l-96 -40
-354 150 c-195 82 -419 177 -499 211 -343 145 -381 158 -327 114z"/>
<path d="M905 1230 c-13 -15 -16 -28 -10 -57 20 -106 114 -183 226 -183 40 0
59 14 59 46 0 30 -25 48 -71 50 -64 3 -112 45 -123 109 -6 30 -29 55 -51 55
-7 0 -20 -9 -30 -20z m105 -135 c11 -10 42 -25 69 -34 57 -18 63 -37 11 -34
-55 3 -58 4 -99 40 -47 40 -83 119 -60 133 10 7 19 -3 36 -39 13 -26 32 -56
43 -66z"/>
<path d="M2524 1042 c-21 -14 -34 -51 -34 -97 0 -75 63 -122 104 -76 23 25 36
77 29 111 -10 54 -63 86 -99 62z m60 -34 c29 -41 12 -129 -26 -136 -21 -4 -48
45 -48 85 0 33 25 73 45 73 8 0 21 -10 29 -22z"/>
<path d="M2513 795 c-23 -16 -43 -88 -43 -153 0 -54 16 -24 36 68 l16 75 36
-1 c35 -1 35 -1 58 -80 13 -43 23 -79 24 -80 0 -1 -22 1 -49 4 -55 5 -101 -3
-101 -18 0 -17 136 -12 154 6 19 19 19 13 0 88 -25 96 -74 131 -131 91z"/>
</g>
</svg>
